<svg data-v-fde0c5aa="" xmlns="http://www.w3.org/2000/svg" viewBox="0 0 300 300" class="iconAbove"><!----><defs data-v-fde0c5aa=""><!----></defs><rect data-v-fde0c5aa="" fill="#1D1D28" x="0" y="0" width="300px" height="300px" class="logo-background-square"></rect><defs data-v-fde0c5aa=""><!----></defs><g data-v-fde0c5aa="" id="d79f3d85-51d9-428f-80da-a04df0c62816" fill="#ffffff" transform="matrix(3.5523977500635873,0,0,3.5523977500635873,14.920070980260935,171.11367747957922)"><path d="M11.77 6.21L11.77 6.21Q11.68 6.26 11.62 6.34Q11.57 6.43 11.55 6.51L11.55 6.51Q11.52 6.60 11.50 6.71L11.50 6.71Q11.50 6.79 11.49 7.07Q11.48 7.35 11.46 7.78Q11.44 8.20 11.43 8.73Q11.41 9.26 11.39 9.83Q11.37 10.40 11.35 10.96Q11.33 11.53 11.32 12.03Q11.30 12.53 11.29 12.92Q11.28 13.32 11.27 13.54L11.27 13.54Q11.26 13.97 11.23 14.25Q11.20 14.53 11.16 14.71Q11.11 14.90 11.04 15.03Q10.97 15.16 10.89 15.30L10.89 15.30Q10.83 15.43 10.71 15.66L10.71 15.66Q10.60 15.86 10.41 16.19Q10.22 16.52 9.93 17.02L9.93 17.02Q9.82 16.72 9.60 16.39Q9.38 16.06 9.15 15.78L9.15 15.78Q8.87 15.45 8.57 15.13L8.57 15.13Q8.20 14.77 7.44 14.01L7.44 14.01Q7.11 13.69 6.67 13.26Q6.22 12.82 5.63 12.25Q5.04 11.68 4.31 10.95Q3.57 10.23 2.66 9.33L2.66 9.33Q2.65 10.17 2.64 10.83Q2.63 11.50 2.62 12.03Q2.61 12.56 2.60 12.96Q2.60 13.35 2.60 13.64L2.60 13.64Q2.59 14.31 2.59 14.59L2.59 14.59Q2.58 14.81 2.63 14.99Q2.68 15.18 2.78 15.31Q2.88 15.44 3.05 15.52Q3.21 15.59 3.45 15.59L3.45 15.59Q3.68 15.59 3.98 15.51Q4.28 15.44 4.66 15.26L4.66 15.26Q4.33 15.59 4.03 15.83Q3.73 16.06 3.47 16.24Q3.21 16.41 2.98 16.52Q2.76 16.63 2.58 16.69L2.58 16.69Q2.16 16.84 1.85 16.81L1.85 16.81Q1.59 16.75 1.51 16.60Q1.43 16.45 1.43 16.17L1.43 16.17Q1.43 14.01 1.50 11.89Q1.58 9.78 1.58 7.67L1.58 7.67Q1.58 7.35 1.58 7.14Q1.58 6.92 1.57 6.83L1.57 6.83Q1.62 6.65 1.79 6.43L1.79 6.43Q1.93 6.23 2.20 5.95Q2.47 5.68 2.94 5.33L2.94 5.33Q2.88 5.48 2.86 5.61Q2.84 5.75 2.84 5.87L2.84 5.87Q2.84 6.07 2.88 6.22Q2.92 6.38 2.97 6.49L2.97 6.49Q3.04 6.61 3.11 6.71L3.11 6.71Q3.34 7 3.71 7.38Q4.08 7.77 4.57 8.25Q5.06 8.73 5.65 9.31Q6.23 9.89 6.90 10.58L6.90 10.58Q7.38 11.03 7.92 11.56L7.92 11.56Q8.37 12.01 8.96 12.62Q9.54 13.22 10.15 13.91L10.15 13.91Q10.17 12.65 10.17 11.74Q10.18 10.82 10.18 10.14L10.18 10.14Q10.18 9.52 10.18 9.12Q10.17 8.71 10.17 8.46L10.17 8.46Q10.16 8.18 10.15 8.02L10.15 8.02Q10.15 7.79 10.08 7.63Q10.01 7.47 9.91 7.38Q9.80 7.29 9.67 7.26Q9.53 7.22 9.39 7.22L9.39 7.22Q9.24 7.22 9.09 7.25Q8.95 7.29 8.87 7.34L8.87 7.34Q9.16 7.10 9.44 6.88Q9.72 6.67 10.01 6.51Q10.30 6.35 10.62 6.26Q10.94 6.17 11.30 6.17L11.30 6.17Q11.54 6.17 11.77 6.21ZM17.25 11.66L22.26 10.02Q21.48 10.40 20.81 10.70Q20.13 11.00 19.62 11.20L19.62 11.20Q19.02 11.44 18.53 11.63L18.53 11.63Q18.22 11.76 17.85 11.89Q17.47 12.02 17.07 12.15Q16.67 12.28 16.25 12.40Q15.83 12.53 15.42 12.65L15.42 12.65L15.42 12.79Q15.42 13.49 15.64 14.05Q15.86 14.62 16.26 15.01Q16.65 15.40 17.21 15.61Q17.76 15.82 18.43 15.82L18.43 15.82Q18.78 15.82 19.12 15.76Q19.47 15.71 19.78 15.62Q20.09 15.52 20.36 15.39Q20.64 15.26 20.85 15.11L20.85 15.11Q20.33 15.58 19.78 15.89Q19.23 16.21 18.68 16.40Q18.13 16.60 17.59 16.69Q17.06 16.78 16.56 16.78L16.56 16.78Q16.06 16.80 15.58 16.63Q15.10 16.46 14.70 16.12Q14.31 15.78 14.03 15.27Q13.76 14.76 13.68 14.08L13.68 14.08Q13.64 13.84 13.65 13.62Q13.65 13.40 13.69 13.18L13.69 13.18Q13.45 13.27 13.26 13.34Q13.06 13.42 12.94 13.49L12.94 13.49Q13.14 13.36 13.34 13.24Q13.54 13.12 13.73 13.02L13.73 13.02Q13.84 12.48 14.13 12.00Q14.41 11.51 14.81 11.09Q15.21 10.68 15.70 10.34Q16.19 10.00 16.72 9.76Q17.25 9.52 17.80 9.39Q18.35 9.26 18.86 9.26L18.86 9.26Q19.20 9.26 19.44 9.37Q19.67 9.47 19.76 9.73L19.76 9.73Q19.80 10.00 19.56 10.32L19.56 10.32Q19.46 10.45 19.28 10.61Q19.11 10.76 18.83 10.93Q18.55 11.10 18.17 11.29Q17.78 11.47 17.25 11.66L17.25 11.66ZM16.84 11.68L16.84 11.68Q17.14 11.55 17.37 11.40Q17.61 11.25 17.74 11.09Q17.88 10.92 17.88 10.75Q17.89 10.57 17.74 10.37L17.74 10.37Q17.64 10.22 17.46 10.16Q17.27 10.10 17.08 10.10L17.08 10.10Q16.91 10.10 16.74 10.14Q16.58 10.18 16.45 10.24L16.45 10.24Q16.37 10.29 16.23 10.45Q16.08 10.61 15.93 10.87Q15.78 11.12 15.65 11.46Q15.52 11.80 15.46 12.20L15.46 12.20Q15.89 12.04 16.24 11.92Q16.58 11.80 16.84 11.68ZM33.33 9.06L33.33 9.06Q33.43 9.35 33.49 9.60Q33.56 9.86 33.56 10.13L33.56 10.13Q33.56 10.33 33.51 10.55Q33.46 10.77 33.35 11.04Q33.24 11.30 33.06 11.61Q32.88 11.93 32.61 12.32L32.61 12.32Q32.15 12.97 31.79 13.48Q31.42 14 31.16 14.41Q30.89 14.82 30.72 15.14Q30.56 15.46 30.50 15.70L30.50 15.70Q30.26 15.83 30.02 16.01L30.02 16.01Q29.80 16.17 29.55 16.40Q29.29 16.63 29.04 16.95L29.04 16.95Q29.11 16.63 29.04 16.25Q28.97 15.87 28.82 15.46Q28.66 15.05 28.45 14.62Q28.24 14.18 28.02 13.76Q27.79 13.34 27.59 12.93Q27.39 12.52 27.26 12.16L27.26 12.16Q26.99 12.57 26.67 13.02Q26.36 13.47 26.09 13.92Q25.82 14.37 25.63 14.80Q25.45 15.22 25.44 15.59L25.44 15.59Q25.25 15.70 25.02 15.87L25.02 15.87Q24.82 16.02 24.56 16.27Q24.30 16.51 24.01 16.86L24.01 16.86Q23.95 16.20 23.83 15.55Q23.70 14.90 23.57 14.36L23.57 14.36Q23.41 13.75 23.24 13.18L23.24 13.18Q23.06 12.61 22.85 12.12Q22.64 11.63 22.40 11.27Q22.17 10.90 21.90 10.70Q21.63 10.49 21.32 10.49L21.32 10.49Q21.15 10.49 20.98 10.56Q20.82 10.62 20.62 10.75L20.62 10.75Q20.86 10.52 21.14 10.26Q21.42 10.01 21.74 9.79Q22.05 9.56 22.38 9.42Q22.72 9.28 23.04 9.28L23.04 9.28Q23.26 9.28 23.45 9.38Q23.63 9.48 23.76 9.70L23.76 9.70Q23.89 9.93 24.11 10.38Q24.33 10.83 24.56 11.44Q24.79 12.04 25.00 12.77Q25.20 13.49 25.30 14.26L25.30 14.26Q25.63 13.83 25.92 13.36Q26.21 12.89 26.42 12.39Q26.64 11.89 26.77 11.39Q26.89 10.88 26.89 10.37L26.89 10.37L28.45 9.13Q28.42 9.31 28.44 9.52Q28.46 9.73 28.51 9.91L28.51 9.91Q28.55 10.12 28.63 10.32L28.63 10.32Q28.68 10.47 28.81 10.75Q28.94 11.03 29.11 11.39Q29.29 11.75 29.48 12.16Q29.68 12.57 29.87 12.98Q30.06 13.39 30.23 13.77Q30.39 14.16 30.51 14.46L30.51 14.46Q30.77 14.07 31.03 13.65Q31.29 13.24 31.50 12.82Q31.71 12.40 31.85 11.98Q31.98 11.55 31.98 11.14L31.98 11.14Q31.98 10.94 31.94 10.73Q31.91 10.53 31.82 10.32L31.82 10.32Q32.20 10.06 32.48 9.83Q32.76 9.60 32.96 9.43L32.96 9.43Q33.18 9.24 33.33 9.06ZM40.89 13.79L40.89 13.79Q40.89 14.26 40.64 14.67Q40.39 15.07 39.98 15.42Q39.58 15.76 39.07 16.02Q38.56 16.28 38.04 16.45Q37.51 16.63 37.02 16.71Q36.52 16.80 36.16 16.77L36.16 16.77Q35.83 16.75 35.48 16.67Q35.13 16.58 34.86 16.46Q34.59 16.34 34.46 16.19Q34.32 16.05 34.45 15.91L34.45 15.91Q34.57 15.78 34.71 15.65Q34.86 15.52 35.05 15.38Q35.25 15.24 35.53 15.09Q35.80 14.93 36.18 14.74L36.18 14.74Q36.06 14.93 36.12 15.07Q36.18 15.22 36.35 15.33Q36.52 15.44 36.76 15.52Q37.00 15.59 37.24 15.64Q37.47 15.69 37.67 15.71Q37.86 15.73 37.95 15.73L37.95 15.73Q38.19 15.73 38.44 15.71Q38.68 15.68 38.87 15.60Q39.06 15.52 39.18 15.36Q39.30 15.20 39.30 14.92L39.30 14.92Q39.30 14.57 39.11 14.33Q38.92 14.10 38.62 13.94Q38.32 13.77 37.94 13.68Q37.56 13.58 37.19 13.52Q36.82 13.45 36.49 13.41Q36.16 13.36 35.94 13.31L35.94 13.31Q35.60 13.22 35.37 13.07Q35.14 12.93 35.00 12.75Q34.86 12.56 34.80 12.36Q34.74 12.15 34.74 11.95L34.74 11.95Q34.74 11.49 34.99 11.10Q35.23 10.71 35.63 10.40Q36.03 10.08 36.53 9.84Q37.03 9.60 37.55 9.44Q38.06 9.28 38.55 9.19Q39.03 9.11 39.39 9.11L39.39 9.11Q39.80 9.11 40.12 9.16Q40.43 9.20 40.63 9.26L40.63 9.26Q40.82 9.32 40.88 9.42Q40.93 9.52 40.88 9.64Q40.82 9.76 40.68 9.91Q40.54 10.05 40.34 10.20L40.34 10.20Q40.18 10.32 40.00 10.43L40.00 10.43Q39.85 10.53 39.66 10.63Q39.46 10.73 39.26 10.80L39.26 10.80Q39.36 10.67 39.34 10.57Q39.33 10.47 39.22 10.38Q39.11 10.30 38.92 10.24Q38.74 10.19 38.51 10.15Q38.29 10.11 38.04 10.09Q37.79 10.08 37.55 10.08L37.55 10.08Q37.32 10.08 37.08 10.09Q36.85 10.11 36.67 10.18Q36.48 10.25 36.37 10.40Q36.25 10.55 36.25 10.81L36.25 10.81Q36.25 11.03 36.35 11.26Q36.44 11.48 36.63 11.69Q36.82 11.89 37.10 12.04Q37.38 12.20 37.75 12.27L37.75 12.27Q38.04 12.33 38.38 12.35Q38.73 12.38 39.08 12.42Q39.43 12.46 39.75 12.54Q40.08 12.61 40.33 12.76Q40.58 12.91 40.74 13.16Q40.89 13.41 40.89 13.79ZM53.48 10.76L53.48 10.76Q53.27 10.97 53.02 11.13Q52.77 11.29 52.51 11.43L52.51 11.43Q52.49 12.26 52.47 13.30Q52.44 14.33 52.42 15.61L52.42 15.61Q52.79 15.68 53.09 15.71Q53.40 15.73 53.64 15.73L53.64 15.73Q53.84 15.73 53.99 15.72Q54.15 15.70 54.25 15.69L54.25 15.69Q54.37 15.67 54.46 15.65L54.46 15.65Q54.06 15.92 53.67 16.15Q53.29 16.38 52.93 16.55Q52.57 16.72 52.25 16.83Q51.93 16.93 51.67 16.96L51.67 16.96Q51.39 16.99 51.19 16.98Q50.98 16.98 50.85 16.89Q50.72 16.80 50.65 16.61Q50.59 16.42 50.59 16.08L50.59 16.08Q50.59 15.92 50.59 15.53Q50.60 15.13 50.61 14.59Q50.63 14.05 50.64 13.39Q50.66 12.74 50.68 12.05L50.68 12.05Q50.24 12.14 49.86 12.18Q49.47 12.22 49.18 12.24L49.18 12.24Q48.84 12.26 48.54 12.24L48.54 12.24Q47.80 12.21 47.20 12.19Q46.61 12.17 46.14 12.17L46.14 12.17Q45.85 12.17 45.60 12.18Q45.36 12.19 45.14 12.20L45.14 12.20L45.07 15.78Q45.31 15.86 45.54 15.89Q45.77 15.91 45.98 15.91L45.98 15.91Q46.25 15.91 46.48 15.88Q46.72 15.85 46.89 15.80Q47.07 15.75 47.17 15.71Q47.27 15.67 47.28 15.66L47.28 15.66Q46.96 15.93 46.59 16.16Q46.22 16.39 45.85 16.56Q45.48 16.73 45.13 16.83Q44.79 16.93 44.52 16.96L44.52 16.96Q44.25 16.99 44.02 16.98Q43.78 16.98 43.61 16.89Q43.44 16.80 43.35 16.61Q43.25 16.42 43.25 16.08L43.25 16.08Q43.25 15.91 43.26 15.49Q43.27 15.07 43.29 14.48Q43.31 13.90 43.33 13.20Q43.35 12.51 43.37 11.80Q43.39 11.09 43.41 10.41Q43.44 9.73 43.45 9.18Q43.47 8.63 43.48 8.25Q43.50 7.88 43.50 7.77L43.50 7.77Q43.51 7.53 43.30 7.43Q43.09 7.33 42.79 7.33L42.79 7.33Q42.53 7.33 42.26 7.38Q41.99 7.42 41.74 7.49L41.74 7.49Q42.09 7.25 42.43 7.06Q42.77 6.86 43.11 6.72Q43.46 6.58 43.81 6.50Q44.17 6.42 44.55 6.42L44.55 6.42Q44.70 6.42 44.83 6.44Q44.97 6.45 45.07 6.49Q45.17 6.53 45.22 6.59Q45.28 6.65 45.28 6.74L45.28 6.74Q45.27 6.88 45.26 7.40L45.26 7.40Q45.25 7.62 45.25 7.94Q45.24 8.26 45.23 8.71Q45.21 9.16 45.20 9.75Q45.19 10.34 45.17 11.11L45.17 11.11Q45.57 11.07 45.99 11.05Q46.41 11.03 46.82 11.03L46.82 11.03Q47.26 11.03 47.68 11.05Q48.11 11.07 48.52 11.10Q48.94 11.12 49.35 11.15Q49.75 11.17 50.16 11.17L50.16 11.17L50.71 11.17L50.84 7.77Q50.85 7.64 50.79 7.56Q50.74 7.48 50.65 7.43Q50.55 7.38 50.42 7.35Q50.29 7.33 50.14 7.33L50.14 7.33Q49.88 7.33 49.60 7.38Q49.33 7.42 49.08 7.49L49.08 7.49Q49.42 7.25 49.76 7.06Q50.10 6.86 50.45 6.72Q50.79 6.58 51.15 6.50Q51.51 6.42 51.89 6.42L51.89 6.42Q52.19 6.42 52.40 6.49Q52.62 6.57 52.62 6.74L52.62 6.74Q52.61 6.88 52.60 7.38L52.60 7.38Q52.59 7.59 52.58 7.91Q52.58 8.22 52.57 8.65Q52.56 9.09 52.55 9.67Q52.53 10.25 52.52 10.99L52.52 10.99Q52.76 10.94 53.00 10.89Q53.25 10.83 53.48 10.76ZM65.82 15.29L65.82 15.29Q65.30 15.66 64.92 15.93Q64.54 16.21 64.21 16.38Q63.88 16.56 63.58 16.63Q63.28 16.70 62.93 16.68L62.93 16.68Q62.67 16.67 62.48 16.57Q62.29 16.47 62.17 16.28Q62.04 16.09 61.98 15.81Q61.91 15.54 61.89 15.16L61.89 15.16Q61.50 15.49 61.09 15.78Q60.67 16.06 60.22 16.27Q59.77 16.48 59.30 16.60Q58.82 16.71 58.32 16.71L58.32 16.71Q57.64 16.71 57.20 16.51Q56.77 16.30 56.51 15.93Q56.25 15.57 56.15 15.05Q56.05 14.54 56.05 13.92L56.05 13.92Q56.05 13.52 56.07 13.13Q56.08 12.74 56.08 12.37L56.08 12.37Q56.08 11.94 56.05 11.57Q56.02 11.19 55.93 10.91Q55.84 10.64 55.66 10.48Q55.49 10.32 55.20 10.32L55.20 10.32Q54.96 10.32 54.63 10.44L54.63 10.44Q54.88 10.24 55.16 10.04Q55.43 9.83 55.72 9.67Q56.01 9.50 56.32 9.40Q56.62 9.29 56.94 9.29L56.94 9.29Q57.22 9.29 57.39 9.43Q57.56 9.56 57.65 9.78Q57.74 9.99 57.76 10.26Q57.79 10.52 57.79 10.77L57.79 10.77Q57.79 11.45 57.78 12.07Q57.76 12.68 57.76 13.30L57.76 13.30Q57.77 13.83 57.89 14.24Q58.00 14.66 58.25 14.94Q58.50 15.23 58.90 15.37Q59.30 15.52 59.88 15.50L59.88 15.50Q60.31 15.50 60.63 15.44Q60.96 15.37 61.20 15.22Q61.44 15.06 61.61 14.80Q61.78 14.53 61.89 14.12L61.89 14.12Q61.91 13.21 61.95 12.39Q61.98 11.57 61.98 10.76L61.98 10.76Q61.97 10.60 61.90 10.48L61.90 10.48Q61.84 10.38 61.70 10.33Q61.56 10.27 61.30 10.34L61.30 10.34Q61.50 10.19 61.75 10.01Q62.00 9.82 62.25 9.66Q62.51 9.50 62.76 9.39Q63.01 9.28 63.23 9.28L63.23 9.28Q63.46 9.28 63.62 9.41Q63.79 9.55 63.79 9.81L63.79 9.81Q63.79 9.95 63.78 10.32Q63.78 10.68 63.77 11.17Q63.76 11.66 63.75 12.20Q63.75 12.75 63.74 13.25Q63.73 13.75 63.73 14.16Q63.73 14.57 63.73 14.78L63.73 14.78Q63.75 15.17 64.04 15.35Q64.33 15.54 64.75 15.54L64.75 15.54Q65.00 15.54 65.28 15.47Q65.56 15.41 65.82 15.29ZM74.62 12.47L74.62 12.47Q74.62 13.07 74.39 13.61Q74.16 14.15 73.77 14.62Q73.38 15.08 72.87 15.46Q72.36 15.85 71.80 16.13Q71.24 16.41 70.68 16.57Q70.11 16.74 69.61 16.78L69.61 16.78Q69.39 16.80 69.09 16.78Q68.79 16.75 68.47 16.67Q68.15 16.58 67.84 16.41Q67.53 16.24 67.29 15.94Q67.04 15.65 66.89 15.21Q66.74 14.78 66.74 14.18L66.74 14.18Q66.74 13.73 66.75 13.13Q66.76 12.52 66.77 11.84Q66.79 11.15 66.80 10.41Q66.82 9.68 66.84 8.96Q66.86 8.24 66.88 7.58Q66.90 6.91 66.91 6.36Q66.92 5.82 66.92 5.42Q66.93 5.02 66.92 4.85L66.92 4.85Q66.90 4.61 66.78 4.44L66.78 4.44Q66.68 4.29 66.47 4.21Q66.26 4.12 65.88 4.22L65.88 4.22Q66.14 4.09 66.41 3.94Q66.68 3.79 66.95 3.67Q67.22 3.55 67.50 3.48Q67.77 3.40 68.05 3.40L68.05 3.40Q68.20 3.40 68.33 3.42Q68.46 3.45 68.56 3.52Q68.66 3.60 68.72 3.71Q68.78 3.83 68.78 4.00L68.78 4.00Q68.78 4.12 68.78 4.46Q68.77 4.81 68.76 5.31Q68.75 5.82 68.73 6.45Q68.71 7.08 68.70 7.76Q68.68 8.45 68.66 9.16Q68.65 9.88 68.63 10.55L68.63 10.55Q68.99 10.30 69.36 10.09Q69.73 9.88 70.11 9.74Q70.50 9.59 70.90 9.51Q71.30 9.42 71.72 9.42L71.72 9.42Q72.41 9.42 72.95 9.67Q73.49 9.93 73.86 10.35Q74.23 10.77 74.43 11.32Q74.62 11.87 74.62 12.47ZM68.57 13.79L68.57 13.79Q68.57 14.13 68.78 14.51Q68.99 14.89 69.34 15.21Q69.69 15.53 70.14 15.74Q70.59 15.96 71.08 15.96L71.08 15.96Q71.56 15.96 71.89 15.72Q72.22 15.49 72.43 15.13Q72.63 14.77 72.72 14.34Q72.82 13.91 72.82 13.52L72.82 13.52Q72.82 12.89 72.61 12.33Q72.41 11.76 72.03 11.34Q71.66 10.91 71.14 10.66Q70.62 10.41 70 10.41L70 10.41Q69.75 10.41 69.55 10.45Q69.35 10.48 69.24 10.53L69.24 10.53Q69.14 10.59 69.05 10.74Q68.95 10.89 68.87 11.10Q68.79 11.31 68.72 11.57Q68.65 11.83 68.60 12.11L68.60 12.11Q68.58 12.71 68.58 13.16Q68.57 13.61 68.57 13.79Z"></path></g><defs data-v-fde0c5aa=""><!----></defs><g data-v-fde0c5aa="" id="8d16104a-c103-4707-88df-7cef58cb4b83" stroke="none" fill="#22D720" transform="matrix(3.023978771072306,0,0,3.023978771072306,101.6163396628431,68.42450949426465)"><path d="M0 16.024L15.976 32 32 15.976 16.024 0 0 16.024zm15.989 7.323l-7.336-7.336 14.694-.022-7.358 7.358z"></path></g><!----></svg>